<svg width="10px" height="10px" xmlns="http://www.w3.org/2000/svg"> 
    <defs>
        <symbol viewBox="0 0 48 48" id="icon-photo-add">
            <path clip-rule="evenodd" d="M43 41H5a4 4 0 01-4-4V11a4 4 0 014-4h38a4 4 0 014 4v26a4 4 0 01-4 4zm2-30a2 2 0 00-2-2H5a2 2 0 00-2 2v26a2 2 0 002 2h38a2 2 0 002-2V11zm-3.666 23.715L35 28.381 31.381 32l3.334 3.334a.977.977 0 01-1.381 1.381L19 22.381 6.666 34.715a.977.977 0 01-1.381-1.381L18.19 20.429c.032-.048.053-.101.095-.144a.97.97 0 01.715-.281.97.97 0 01.715.281c.042.043.062.096.095.144L30 30.619l4.19-4.19c.033-.047.053-.101.095-.144a.975.975 0 01.715-.281.975.975 0 01.715.281c.042.043.062.097.095.144l6.905 6.905a.977.977 0 01-1.381 1.381zM29 19a4 4 0 110-8 4 4 0 010 8zm0-6a2 2 0 10.001 4.001A2 2 0 0029 13z" fill-rule="evenodd"></path>
        </symbol>
        <symbol id="icon-stopwatch" viewBox="0 0 32 32">
            <path d="M16 6.038v-2.038h4v-2c0-1.105-0.895-2-2-2h-6c-1.105 0-2 0.895-2 2v2h4v2.038c-6.712 0.511-12 6.119-12 12.962 0 7.18 5.82 13 13 13s13-5.82 13-13c0-6.843-5.288-12.451-12-12.962zM22.071 26.071c-1.889 1.889-4.4 2.929-7.071 2.929s-5.182-1.040-7.071-2.929c-1.889-1.889-2.929-4.4-2.929-7.071s1.040-5.182 2.929-7.071c1.814-1.814 4.201-2.844 6.754-2.923l-0.677 9.813c-0.058 0.822 0.389 1.181 0.995 1.181s1.053-0.36 0.995-1.181l-0.677-9.813c2.552 0.079 4.94 1.11 6.754 2.923 1.889 1.889 2.929 4.4 2.929 7.071s-1.040 5.182-2.929 7.071z"></path>
        </symbol>
        <symbol id="icon-arrow-right" viewBox="0 0 32 32">
            <path d="M19.414 27.414l10-10c0.781-0.781 0.781-2.047 0-2.828l-10-10c-0.781-0.781-2.047-0.781-2.828 0s-0.781 2.047 0 2.828l6.586 6.586h-19.172c-1.105 0-2 0.895-2 2s0.895 2 2 2h19.172l-6.586 6.586c-0.39 0.39-0.586 0.902-0.586 1.414s0.195 1.024 0.586 1.414c0.781 0.781 2.047 0.781 2.828 0z"></path>
        </symbol>
        <symbol id="icon-arrow-left" viewBox="0 0 32 32">
            <path d="M12.586 27.414l-10-10c-0.781-0.781-0.781-2.047 0-2.828l10-10c0.781-0.781 2.047-0.781 2.828 0s0.781 2.047 0 2.828l-6.586 6.586h19.172c1.105 0 2 0.895 2 2s-0.895 2-2 2h-19.172l6.586 6.586c0.39 0.39 0.586 0.902 0.586 1.414s-0.195 1.024-0.586 1.414c-0.781 0.781-2.047 0.781-2.828 0z"></path>
        </symbol>
        <symbol id="icon-new-paragraph" viewBox="0 0 32 32">
            <path d="M12 0h16v4h-4v28h-4v-28h-4v28h-4v-16c-4.418 0-8-3.582-8-8s3.582-8 8-8z"></path>
        </symbol>
        <symbol id="icon-new-paragraph-2" version="1.0" viewBox="0 0 981 894">
            <path d="M693 3.2c-2.6 1.3-11.8 9.4-22.2 19.7L653 40.3l-5.2-4.4c-10-8.4-17.4-10.7-24.1-7.3-9.1 4.6-28.8 22.9-97.9 90.7-86.3 84.7-367.3 365.8-370.4 370.6-2.5 3.8-2.8 5.2-2.5 10.5.6 11.4.5 12.4-2.7 18.8-1.7 3.4-9 16.6-16.1 29.3-19.9 35-23.6 42.5-22.7 45.9.9 3.5 14.9 17.7 19.4 19.5 3.2 1.4 3.7 1.2 15.5-4.7 6.7-3.3 24.6-13.1 39.7-21.6l27.5-15.5 11.3 1.1 11.4 1.1 17.6-17.4c235.1-231.6 425.8-421.8 443.3-442.1 5.8-6.8 5.9-6.9 5.9-13 0-7-2.1-12.2-7.4-18.5l-3.5-4 17-16.9c9.4-9.3 18.3-18.9 19.9-21.3 5.5-8.3 3.4-19.3-5.5-28.9-9.5-10.3-21.2-13.7-30.5-9zM563.4 34.9c-3.3 2.2-14.7 12.2-25.4 22.4-28.7 27.2-116.2 114.3-120.9 120.5-3.4 4.4-4.1 6.2-4.1 9.8 0 6 3.2 9.4 8.9 9.4 6.8 0 11.2-4 86.5-78.9 66.1-65.7 73.9-74.4 72.1-80.1-.9-2.8-6.3-7-9-7-1.2 0-4.9 1.8-8.1 3.9z"></path>
            <path d="M29.4 317.9c-18.3 1-23.3 3.8-25.4 14.6-.5 2.7-1.4 19.8-2 38-1.5 43.1-.7 494.2.8 502.8 1.1 6.1 5 12.8 8.9 15.4 4.4 2.9 105.2 3.6 527.3 3.7 291 .1 411.3-.2 418.2-1 11.1-1.3 14.3-3.1 20.4-11.2l3.4-4.7-.4-262c-.2-180.4-.7-265.1-1.4-272-1.6-14.1-3.2-17.8-8.9-20.6-4.1-2-6.9-2.3-28.7-3.1-36.1-1.4-394.8-.4-401.1 1.1-10 2.3-16 10.2-15.9 20.6 0 7 2.1 11.6 8.6 18.8l4.3 4.7 198.3.7 198.2.6V846H48V364.1l93.8-.3c83.9-.4 94.2-.6 98.7-2.1 5.8-1.9 11.6-7.3 14-12.9 2-5 1.9-13.4-.4-18.4-2.4-5.2-9.2-11-13.9-11.9-5.1-.9-194.6-1.4-210.8-.6z"></path>
            <path d="M415.6 531c-6.8 7.5-8.4 15.5-4.7 23.5 3.2 7.2 6.6 9.2 17.3 10.1 5.1.5 100.8.8 212.6.6l203.3-.2 3.2-3.6c5.6-6.3 7.7-10.5 7.7-15.4-.1-6.5-4.3-13.9-9.5-16.5-4-2-6.3-2-215.1-2.3l-211-.4-3.8 4.2zM192.3 723.2c-7.5 7.6-9.2 15.7-5 23.8 3.5 7 6.9 8.7 19.5 9.7 5.9.4 151.7.7 324.1.6l313.4-.3 3.6-4.1c5.8-6.8 7.1-9.2 7.1-13.4 0-6.8-2-11.7-6.5-16.2l-4.2-4.3H196.4l-4.1 4.2z"></path>
        </symbol>
        <symbol id="icon-add" viewBox="0 0 32 32">
            <path d="M31 12h-11v-11c0-0.552-0.448-1-1-1h-6c-0.552 0-1 0.448-1 1v11h-11c-0.552 0-1 0.448-1 1v6c0 0.552 0.448 1 1 1h11v11c0 0.552 0.448 1 1 1h6c0.552 0 1-0.448 1-1v-11h11c0.552 0 1-0.448 1-1v-6c0-0.552-0.448-1-1-1z"></path>
        </symbol>
        <symbol id="icon-home" viewBox="0 0 32 32">
            <path d="M32 18.451l-16-12.42-16 12.42v-5.064l16-12.42 16 12.42zM28 18v12h-8v-8h-8v8h-8v-12l12-9z"></path>
        </symbol>
        <symbol id="icon-recipe" viewBox="0 0 24 24">
            <path d="M6 3.984v8.016l2.484-1.5 2.531 1.5v-8.016h-5.016zM18 2.016q0.797 0 1.406 0.586t0.609 1.383v16.031q0 0.797-0.609 1.383t-1.406 0.586h-12q-0.797 0-1.406-0.586t-0.609-1.383v-16.031q0-0.797 0.609-1.383t1.406-0.586h12z"></path>
        </symbol>
        <symbol id="icon-create" viewBox="0 0 32 32">
            <path d="M27 0c2.761 0 5 2.239 5 5 0 1.126-0.372 2.164-1 3l-2 2-7-7 2-2c0.836-0.628 1.874-1 3-1zM2 23l-2 9 9-2 18.5-18.5-7-7-18.5 18.5zM22.362 11.362l-14 14-1.724-1.724 14-14 1.724 1.724z"></path>
        </symbol>
        <symbol id="icon-about" viewBox="0 0 24 24">
            <path d="M11.016 9v-2.016h1.969v2.016h-1.969zM12 20.016q3.281 0 5.648-2.367t2.367-5.648-2.367-5.648-5.648-2.367-5.648 2.367-2.367 5.648 2.367 5.648 5.648 2.367zM12 2.016q4.125 0 7.055 2.93t2.93 7.055-2.93 7.055-7.055 2.93-7.055-2.93-2.93-7.055 2.93-7.055 7.055-2.93zM11.016 17.016v-6h1.969v6h-1.969z"></path>
        </symbol>
        <symbol id="icon-user" viewBox="0 0 24 24">
            <path d="M12 14.016q2.531 0 5.273 1.102t2.742 2.883v2.016h-16.031v-2.016q0-1.781 2.742-2.883t5.273-1.102zM12 12q-1.641 0-2.813-1.172t-1.172-2.813 1.172-2.836 2.813-1.195 2.813 1.195 1.172 2.836-1.172 2.813-2.813 1.172z"></path>
        </symbol>
        <symbol id="icon-user_add" viewBox="0 0 24 24">
            <path d="M15 14.016q2.531 0 5.273 1.102t2.742 2.883v2.016h-16.031v-2.016q0-1.781 2.742-2.883t5.273-1.102zM6 9.984h3v2.016h-3v3h-2.016v-3h-3v-2.016h3v-3h2.016v3zM15 12q-1.641 0-2.813-1.172t-1.172-2.813 1.172-2.836 2.813-1.195 2.813 1.195 1.172 2.836-1.172 2.813-2.813 1.172z"></path>
        </symbol>
        <symbol id="icon-logout" viewBox="0 0 24 24">
            <path d="M3.984 5.016v13.969h8.016v2.016h-8.016q-0.797 0-1.383-0.609t-0.586-1.406v-13.969q0-0.797 0.586-1.406t1.383-0.609h8.016v2.016h-8.016zM17.016 6.984l4.969 5.016-4.969 5.016-1.406-1.453 2.578-2.578h-10.172v-1.969h10.172l-2.578-2.625z"></path>
        </symbol>
        <symbol id="icon-close" viewBox="0 0 24 24">
            <path d="M18.984 6.422l-5.578 5.578 5.578 5.578-1.406 1.406-5.578-5.578-5.578 5.578-1.406-1.406 5.578-5.578-5.578-5.578 1.406-1.406 5.578 5.578 5.578-5.578z"></path>
        </symbol>
        <symbol id="icon-password" viewBox="0 0 24 24">
            <path d="M12 9q1.219 0 2.109 0.891t0.891 2.109-0.891 2.109-2.109 0.891-2.109-0.891-0.891-2.109 0.891-2.109 2.109-0.891zM12 17.016q2.063 0 3.539-1.477t1.477-3.539-1.477-3.539-3.539-1.477-3.539 1.477-1.477 3.539 1.477 3.539 3.539 1.477zM12 4.5q3.703 0 6.703 2.063t4.313 5.438q-1.313 3.375-4.313 5.438t-6.703 2.063-6.703-2.063-4.313-5.438q1.313-3.375 4.313-5.438t6.703-2.063z"></path>
        </symbol>
        <symbol id="icon-edit" viewBox="0 0 24 24">
            <path fill="none" d="M0 0h24v24H0z"></path>
            <path d="M9 4v1.38c-.83-.33-1.72-.5-2.61-.5-1.79 0-3.58.68-4.95 2.05l3.33 3.33h1.11v1.11c.86.86 1.98 1.31 3.11 1.36V15H6v3c0 1.1.9 2 2 2h10c1.66 0 3-1.34 3-3V4H9zm-1.11 6.41V8.26H5.61L4.57 7.22a5.07 5.07 0 011.82-.34c1.34 0 2.59.52 3.54 1.46l1.41 1.41-.2.2a2.7 2.7 0 01-1.92.8c-.47 0-.93-.12-1.33-.34zM19 17c0 .55-.45 1-1 1s-1-.45-1-1v-2h-6v-2.59c.57-.23 1.1-.57 1.56-1.03l.2-.2L15.59 14H17v-1.41l-6-5.97V6h8v11z"></path>
        </symbol>
        <symbol id="icon-vegetable" viewBox="0 0 64 64">
            <g><path d="m63 35.949c0-4.354-2.111-8.512-5.647-11.122-.721-.534-1.615-.827-2.516-.827-1.128 0-2.185.451-2.961 1.218-.145-.121-.277-.254-.427-.369-.555-.424-1.221-.676-1.905-.78l.441-4.849c.01-.116.015-.233.015-.35 0-2.134-1.736-3.87-3.87-3.87h-.26c-2.134 0-3.87 1.736-3.87 3.87 0 .117.005.234.016.351l.443 4.87c-.634.12-1.247.365-1.765.751-.179.134-.338.288-.51.429-.089-.092-.183-.178-.28-.261.057-.333.096-.67.096-1.01 0-1.27-.396-2.485-1.13-3.5.734-1.015 1.13-2.229 1.13-3.5 0-3.424-2.897-6.199-6.349-5.989-.642-1.84-2.139-3.227-3.979-3.762-1.218-1.519-3.054-2.362-5.021-2.238-.828-2.373-3.07-4.011-5.651-4.011-2.165 0-4.136 1.158-5.198 3.003-2.648.089-4.937 1.958-5.593 4.504-3.096 1.155-5.209 4.152-5.209 7.493 0 2.679 1.318 5.128 3.499 6.608-.329.751-.499 1.563-.499 2.392 0 1.8.8 3.473 2.173 4.606-.115.464-.173.931-.173 1.394 0 3.064 2.31 5.6 5.28 5.957l2.212 6.195c-1.133.835-2.098 1.88-2.841 3.08l-5.239-1.164c-.199-.046-.404-.068-.61-.068-1.545 0-2.802 1.257-2.802 2.802v.396c0 .28.054.546.131.802h-.131c-1.654 0-3 1.346-3 3s1.346 3 3 3h.131c-.077.256-.131.522-.131.802v.396c0 1.545 1.257 2.802 2.802 2.802.206 0 .411-.022.608-.067l5.241-1.165c1.941 3.134 5.4 5.232 9.349 5.232h.235c.556 0 1.119-.043 1.672-.128l34.291-5.275c2.782-.429 4.802-2.782 4.802-5.597 0-2.251-1.303-4.188-3.243-5.101 2.072-2.475 3.243-5.615 3.243-8.848zm-12.767-9.511c2.985 2.282 4.767 5.917 4.767 9.726v3.673c0 2.05-.511 4.057-1.474 5.848l-8.019-1.234c-.33-1.451-.507-2.933-.507-4.421v-4.06c0-1.008.101-2.015.254-3.013.245.021.489.043.746.043 2.851 0 5-1.29 5-3 0-.944-.653-1.782-1.784-2.332l.147-1.618c.312.063.612.189.87.388zm-4.363-9.438h.261c1.031 0 1.87.839 1.87 1.87 0 .057-.002.114-.008.17l-.908 9.987.763.245c.876.28 1.152.649 1.152.728 0 .249-1.064 1-3 1s-3-.751-3-1c0-.079.276-.448 1.152-.729l.763-.245-.908-9.986c-.005-.057-.007-.114-.007-.17 0-1.031.839-1.87 1.87-1.87zm-3.23 9.083.144 1.585c-1.131.55-1.784 1.388-1.784 2.332 0 1.102.899 2.023 2.296 2.543-.179 1.135-.296 2.281-.296 3.427v4.06c0 1.374.132 2.746.388 4.095l-5.895-.907c-.321-1.099-.493-2.232-.493-3.382v-3.673c0-3.803 1.828-7.437 4.89-9.719.223-.166.48-.288.75-.361zm-10.807 16.264c-.543-1.374-.833-2.813-.833-4.296v-2.103c0-3.722 1.808-7.278 4.835-9.514.38-.28.852-.434 1.328-.434.604 0 1.16.243 1.567.65-2.358 2.584-3.73 5.978-3.73 9.514v3.673c0 1.031.123 2.051.346 3.051zm.094-30.046.182 1.029 1.02-.227c.31-.069.595-.103.871-.103 2.206 0 4 1.794 4 4 0 1.051-.408 2.045-1.148 2.799l-.688.701.688.701c.74.754 1.148 1.748 1.148 2.799 0 .03-.006.06-.006.091-.271-.054-.547-.091-.831-.091-.901 0-1.795.293-2.516.826-1.82 1.343-3.253 3.1-4.225 5.079-.379-1.18-.777-2.31-1.187-3.383.925-4.886 4.356-7.714 4.391-7.743l-.626-.779-.625-.781c-.139.111-2.844 2.32-4.363 6.305-2.081-4.778-4.045-7.869-4.171-8.065l-1.683 1.082c.027.041 1.552 2.44 3.327 6.259-2.991-1.126-6.39-.815-6.585-.795l.199 1.99c1.504-.151 5.764-.078 7.754 1.953.701 1.723 1.392 3.612 2.002 5.636-3.04-1.559-6.667-1.584-6.855-1.584v2c.047 0 4.499.03 7.134 2.125-.082.602-.134 1.21-.134 1.824v2.103c0 1.351.208 2.672.594 3.952l-5.687-.875c-.3-.046-.603-.077-.907-.099-2.206 0-4-1.808-4-4.029 0-.466.093-.944.275-1.423l.292-.765-.693-.438c-1.173-.742-1.874-2.003-1.874-3.375 0-.787.231-1.55.668-2.208l.623-.936-1.002-.509c-2.029-1.032-3.289-3.08-3.289-5.347 0-2.661 1.788-5.031 4.349-5.764l.621-.178.093-.639c.285-1.949 1.978-3.419 3.937-3.419.037 0 .073.008.109.013.07.01.141.019.212.024l.717.058.282-.662c.631-1.478 2.075-2.433 3.68-2.433 1.938 0 3.589 1.388 3.927 3.301zm-17.222 22.699h-.705c-2.206 0-4-1.794-4-4 0-.467.093-.945.275-1.422l.293-.765-.693-.438c-1.174-.742-1.875-2.003-1.875-3.375 0-.787.231-1.55.668-2.208l.623-.936-1.002-.509c-2.029-1.032-3.289-3.08-3.289-5.347 0-2.661 1.788-5.031 4.348-5.764l.621-.178.093-.639c.286-1.949 1.979-3.419 3.938-3.419.038 0 .075.008.112.013.068.009.136.018.206.024l.72.06.283-.665c.63-1.477 2.074-2.432 3.679-2.432 1.938 0 3.589 1.388 3.927 3.301l.182 1.029 1.02-.227c.31-.069.595-.103.871-.103.46 0 .897.101 1.315.247-1.47.43-2.736 1.406-3.513 2.756-2.648.089-4.937 1.958-5.593 4.504-3.096 1.155-5.209 4.152-5.209 7.493 0 2.679 1.318 5.128 3.499 6.608-.329.751-.499 1.563-.499 2.392 0 1.8.8 3.473 2.173 4.607-.115.464-.173.93-.173 1.393 0 1.757.756 3.336 1.953 4.438-.594.172-1.165.395-1.713.66zm-8.705 13.198v-.396c0-.502.486-.889.977-.783l4.759 1.058c-.116.302-.22.609-.309.923h-4.625c-.442 0-.802-.36-.802-.802zm-3 3.802c0-.551.449-1 1-1h2.802 4.248c-.029.33-.05.662-.05 1s.021.67.051 1h-4.249-2.802c-.551 0-1-.449-1-1zm3.975 4.981c-.474.102-.975-.282-.975-.783v-.396c0-.442.36-.802.802-.802h4.624c.089.314.194.621.309.923zm54.025-4.981c0 1.821-1.306 3.343-3.105 3.62l-34.29 5.275c-.454.07-.915.105-1.37.105h-.235c-4.962 0-9-4.038-9-9s4.038-9 9-9h.235c.455 0 .916.035 1.369.104l34.29 5.275c1.8.278 3.106 1.8 3.106 3.621zm0-13.949c0 3.076-1.245 6.052-3.411 8.258l-1.987-.306c.913-1.918 1.398-4.021 1.398-6.167v-3.673c0-3.554-1.354-6.965-3.68-9.553.404-.381.94-.61 1.517-.61.477 0 .948.154 1.328.436 3.027 2.234 4.835 5.791 4.835 9.513z"/><path d="m21 47h2v10h-2z"/><path d="m29 47h2v10h-2z"/><path d="m37 47h2v10h-2z"/><path d="m45 49h2v6h-2z"/><path d="m53 50h2v4h-2z"/></g>
        </symbol>
        <symbol id="icon-meat" viewBox="0 0 64 64">
            <g transform="translate(0.000000,64.000000) scale(0.100000,-0.100000)">
            <path d="M115 553 c-44 -23 -74 -53 -96 -95 -25 -50 -27 -223 -3 -271 57 -113
            173 -146 319 -92 38 15 104 32 149 40 74 13 84 18 119 54 l37 40 0 100 c0 97
            -1 101 -30 134 -57 66 -198 107 -365 106 -72 0 -109 -4 -130 -16z m317 -38
            c124 -32 187 -90 174 -160 -4 -18 -13 -38 -21 -45 -8 -7 -15 -19 -15 -26 0 -8
            -7 -14 -15 -14 -8 0 -15 -7 -15 -15 0 -8 7 -15 15 -15 8 0 15 4 15 9 0 5 9 11
            20 14 19 5 19 4 4 -24 -20 -40 -70 -69 -119 -69 -22 0 -85 -16 -140 -35 -55
            -19 -114 -35 -130 -35 -45 0 -116 40 -142 79 -31 46 -29 57 4 26 62 -56 159
            -64 271 -21 41 16 97 31 125 35 40 5 53 10 55 25 4 17 -1 18 -52 12 -30 -3
            -94 -20 -141 -37 -106 -39 -165 -37 -221 6 -39 30 -73 94 -74 138 0 33 24 94
            48 121 39 43 90 57 194 52 53 -3 125 -12 160 -21z"/>
            <path d="M122 500 c-54 -33 -74 -75 -70 -147 4 -56 8 -67 38 -98 60 -62 135
            -66 254 -15 27 11 80 25 119 30 97 14 126 38 127 106 0 29 -6 46 -23 62 -54
            51 -227 96 -227 59 0 -10 14 -18 43 -22 56 -10 135 -40 158 -61 24 -22 24 -45
            -1 -76 -15 -20 -32 -27 -81 -32 -33 -4 -97 -20 -141 -37 -90 -33 -126 -36
            -169 -14 -35 19 -69 70 -69 105 0 69 69 130 147 130 32 0 43 4 43 15 0 24
            -106 20 -148 -5z"/>
        </g>
    </symbol>
    <symbol id="icon-dairy" viewBox="0 -22 512 512">
        <path d="m504.5 374.835938h-26.539062c-.917969-32.550782-23.546876-58.695313-51.230469-58.695313-27.691407 0-50.324219 26.144531-51.242188 58.695313h-6.1875c-.550781-19.546876-8.933593-36.785157-21.539062-47.4375v-201.59375c0-.050782 0-.101563 0-.15625 0-1.894532-.703125-3.628907-1.867188-4.949219l-46.15625-54.625v-42.945313c0-12.753906-10.378906-23.128906-23.140625-23.128906h-160.308594c-12.757812 0-23.140624 10.375-23.140624 23.128906v42.945313l-46.257813 54.734375c-1.144531 1.355468-1.769531 3.070312-1.769531 4.839844v35.441406c0 4.140625 3.355468 7.5 7.5 7.5 4.140625 0 7.5-3.359375 7.5-7.5v-27.941406h272.640625v185.535156c-4.660157-1.65625-9.59375-2.542969-14.703125-2.542969-27.683594 0-50.3125 26.144531-51.230469 58.695313h-26.535156c-4.144531 0-7.5 3.355468-7.5 7.5 0 4.144531 3.355469 7.5 7.5 7.5h11.828125l17.488281 62.84375h-49.820313c.074219-.652344.113282-1.3125.113282-1.984376v-16.925781c0-5.105469-3.84375-9.308593-8.9375-9.777343-7.957032-.730469-13.957032-7.324219-13.957032-15.332032 0-8.007812 6-14.597656 13.960938-15.332031 5.09375-.46875 8.9375-4.671875 8.9375-9.773437v-24.226563c0-4.914063-3.640625-9.109375-8.464844-9.765625-3.449218-.46875-6.054687-3.457031-6.054687-6.953125s2.605469-6.484375 6.058593-6.953125c4.820313-.652344 8.460938-4.851562 8.460938-9.765625v-11.53125c0-9.367187-7.621094-16.988281-16.988281-16.988281h-142.796875v-106.28125c0-4.144532-3.359375-7.5-7.5-7.5-4.144532 0-7.5 3.355468-7.5 7.5v106.28125h-9.554688c-1.535156 0-3.042968.097656-4.523437.289062-17.484375 2.226563-31.042969 17.199219-31.042969 35.277344v99.179688c0 18.082031 13.558594 33.050781 31.042969 35.28125 1.480469.1875 2.988281.285156 4.523437.285156h167.351563c.117187 0 .234375 0 .351562-.003906h81.472657c.113281.003906.222656.003906.332031.003906h65.980469c6.644531 0 12.53125-4.472656 14.316406-10.875l7.023437-25.25 7.027344 25.25c1.785156 6.402344 7.671875 10.875 14.316406 10.875h65.980469c6.644531 0 12.535156-4.472656 14.316406-10.875l18.636719-66.972656h11.828125c4.144531 0 7.5-3.355469 7.5-7.5 0-4.140626-3.355469-7.5-7.5-7.5zm-180.394531-256.683594h-255.328125l35.359375-41.835938h184.617187zm-207.816407-103.152344h160.3125c4.488282 0 8.140626 3.648438 8.140626 8.128906v38.1875h-176.59375v-38.1875c0-4.480468 3.652343-8.128906 8.140624-8.128906zm310.441407 316.140625c19.449219 0 35.367187 19.417969 36.222656 43.695313h-72.457031c.855468-24.277344 16.78125-43.695313 36.234375-43.695313zm-108.671875 0c6.3125 0 12.253906 2.042969 17.425781 5.632813.269531.222656.546875.421874.84375.605468 10.320313 7.621094 17.402344 21.488282 17.964844 37.457032h-72.457031c.855468-24.277344 16.773437-43.695313 36.222656-43.695313zm-282.492188 121.542969c-11.339844 0-20.566406-9.226563-20.566406-20.566406v-99.179688c0-11.339844 9.226562-20.5625 20.566406-20.5625h3.5625c-4.132812 5.808594-6.5625 12.90625-6.5625 20.5625v17.65625c0 4.140625 3.359375 7.5 7.5 7.5 4.144532 0 7.5-3.359375 7.5-7.5v-17.65625c0-11.339844 9.226563-20.5625 20.566406-20.5625h134.785157c1.09375 0 1.984375.890625 1.984375 1.984375v7.550781c-8.523438 3.101563-14.515625 11.320313-14.515625 20.699219 0 9.382813 5.988281 17.601563 14.515625 20.703125v15.878906c-13.335938 3.335938-22.894532 15.277344-22.894532 29.46875 0 14.195313 9.558594 26.136719 22.894532 29.476563v12.5625c0 1.054687-.824219 1.917969-1.867188 1.980469h-.117187c-.078125 0-.15625 0-.230469.003906h-134.554688c-11.339843 0-20.566406-9.226563-20.566406-20.566406v-51.523438c0-4.144531-3.355468-7.5-7.5-7.5-4.140625 0-7.5 3.355469-7.5 7.5v51.523438c0 7.660156 2.433594 14.757812 6.566406 20.566406zm424.046875 0h-65.769531l-8.75-31.449219c-1.222656-4.398437-5.269531-7.472656-9.835938-7.472656h-5.726562c-4.566406 0-8.609375 3.070312-9.832031 7.46875l-8.753907 31.453125h-37.585937c-.074219 0-.152344-.003906-.230469-.003906h-27.949218l-17.488282-62.84375h6.628906c.132813.003906.273438.003906.410157 0h86.679687c.066406.003906.132813.003906.199219.003906s.132813 0 .203125-.003906h21.167969c.132812.003906.273437.003906.410156 0h86.679687c.066407.003906.132813.003906.199219.003906.066407 0 .132813 0 .203125-.003906h6.628906zm0 0"/><path d="m85.886719 363.863281c11.242187 0 20.390625-9.144531 20.390625-20.390625 0-11.242187-9.148438-20.386718-20.390625-20.386718-11.242188 0-20.390625 9.144531-20.390625 20.386718 0 11.242188 9.148437 20.390625 20.390625 20.390625zm0-25.777343c2.972656 0 5.390625 2.417968 5.390625 5.386718 0 2.972656-2.417969 5.390625-5.390625 5.390625-2.972657 0-5.390625-2.417969-5.390625-5.390625 0-2.96875 2.417968-5.386718 5.390625-5.386718zm0 0"/><path d="m136.699219 435.597656c15.8125 0 28.671875-12.863281 28.671875-28.671875 0-15.808593-12.859375-28.671875-28.671875-28.671875-15.808594 0-28.671875 12.863282-28.671875 28.671875 0 15.808594 12.863281 28.671875 28.671875 28.671875zm0-42.34375c7.539062 0 13.671875 6.132813 13.671875 13.671875 0 7.539063-6.132813 13.671875-13.671875 13.671875-7.539063 0-13.671875-6.132812-13.671875-13.671875 0-7.539062 6.132812-13.671875 13.671875-13.671875zm0 0"/><path d="m124.363281 244.90625c22.144531-.484375 44.648438 11.167969 68.496094 23.515625 23.953125 12.398437 48.699219 25.210937 74.078125 25.210937.699219 0 1.398438-.011718 2.097656-.03125 7.335938-.207031 13.085938-6.136718 13.085938-13.5v-52.566406c0-3.648437-1.4375-7.066406-4.046875-9.621094-2.632813-2.574218-6.105469-3.988281-9.820313-3.867187-22.117187.472656-44.648437-11.171875-68.496094-23.515625-24.613281-12.742188-50.078124-25.925781-76.175781-25.179688-7.339843.207032-13.085937 6.136719-13.085937 13.5v52.5625c0 3.652344 1.4375 7.070313 4.046875 9.625 2.636719 2.574219 6.105469 3.941407 9.820312 3.867188zm1.132813-64.585938h.222656c21.683594 0 43.785156 11.4375 67.140625 23.53125 23.953125 12.398438 48.699219 25.210938 74.074219 25.210938h.1875v49.566406c-.074219.003906-.148438.003906-.222656.003906-21.683594 0-43.78125-11.441406-67.140626-23.53125-23.953124-12.402343-48.699218-25.210937-74.074218-25.210937h-.1875zm0 0"/>
    </symbol>
    <symbol id="icon-dry" viewBox="0 0 511 511">
        <g id="Out_line" data-name="Out line"><path d="M34.96143,396.68652A32.75766,32.75766,0,0,1,32,383.0293v-9.7417A790.59356,790.59356,0,0,1,70.95117,128H246.134c-7.35144,23.08411-13.71539,46.67163-18.95086,70.26709l15.62011,3.46582C248.30328,176.94434,255.087,152.17249,262.95813,128H280a32.036,32.036,0,0,0,32-32V72a7.99977,7.99977,0,0,0-8-8H264a32.036,32.036,0,0,1,32-32h1.44824a32.06925,32.06925,0,0,1,30.87207,23.58008l11.77246,43.16553c2.792,10.23584,5.415,20.68115,7.79688,31.04589l15.59375-3.583c-2.42969-10.57373-5.106-21.23-7.9541-31.67286L343.75684,51.37012A48.10546,48.10546,0,0,0,297.44824,16H80A48.05436,48.05436,0,0,0,32,64V96a32.05585,32.05585,0,0,0,22.58533,30.58478A806.527,806.527,0,0,0,16,373.2876v9.7417A48.6442,48.6442,0,0,0,20.39893,403.314ZM296,80V96a16,16,0,0,1-32,0V80ZM48,96V64A32.036,32.036,0,0,1,80,32H260.252A47.80823,47.80823,0,0,0,248,64V96a31.80882,31.80882,0,0,0,4.29443,16H64A16.01833,16.01833,0,0,1,48,96Z"/><path d="M417.82129,228.49219l-3.64258,15.58008C462.76172,255.43164,480,270.52588,480,280c0,8.145-11.56036,17.59692-32.93567,25.94861-3.73523-11.89856-18.76288-21.73657-44.83484-29.30164l-4.459,15.36621c22.22027,6.44727,33.00268,14.22864,34.12561,19.15247C400.11121,320.8374,353.69568,328,296,328c-57.69812,0-104.11511-7.16321-135.90015-16.83557,1.59888-7.55017,24.41449-20.3783,72.99341-27.07947l-2.18652-15.84961c-24.37354,3.36231-45.0874,8.57715-59.90137,15.08106-14.59808,6.40869-23.3302,14.00195-26.067,22.63317C123.56146,297.59766,112,288.14539,112,280c0-3.37256,2.74854-15.35449,38.1167-27.93945,26.94189-9.58643,64.7207-16.28418,106.377-18.85889l-.9873-15.96973c-43.10791,2.66455-82.44092,9.68018-110.75342,19.7544C104.458,251.32471,96,268.2915,96,280a135.40123,135.40123,0,0,0,9.24268,49.26758l16.18994,41.63183,14.91211-5.79882-16.18994-41.63184a120.26574,120.26574,0,0,1-4.58008-14.41125c10.26,6.85681,24.46173,12.98242,42.4209,18.22033C194.96729,338.06152,243.978,344,296,344s101.03271-5.93848,138.00439-16.72217c17.95917-5.23791,32.161-11.36352,42.4209-18.22033a120.26574,120.26574,0,0,1-4.58008,14.41125l-27.4663,70.62744a71.90524,71.90524,0,0,1-10.65039,18.59815l12.543,9.93261A87.87832,87.87832,0,0,0,459.291,399.895l27.4663-70.62744A135.40123,135.40123,0,0,0,496,280C496,251.08887,447.01855,235.31934,417.82129,228.49219Z"/><path d="M354.31482,166.57275a164.02041,164.02041,0,0,0-90.45007,80.39893l-23.02,46.03027,14.31054,7.15625,23.021-46.03222a147.97176,147.97176,0,0,1,75.65851-70.2193,31.70933,31.70933,0,0,0,1.55115,4.56244c-22.067,18.579-41.89734,43.90338-56.27851,72.02942l-23.55029,45.75,14.22558,7.32324,23.56055-45.76953c13.34845-26.106,31.62927-49.54255,51.91767-66.72779a31.889,31.889,0,0,0,2.786,1.88306,31.22786,31.22786,0,0,0,3.30023,1.70624q-4.8036,8.99753-10.018,18.72052-13.08765,24.42846-26.96728,50.64843l-18.14161,34.22022,14.13672,7.49414,18.15284-34.24219q13.80541-26.23682,26.92236-50.56445c4.13519-7.71826,8.1112-15.14014,11.862-22.17664a146.04536,146.04536,0,0,1-17.67743,78.80555l-11.23486,20.60009,14.04687,7.66114,11.23389-20.59815A162.04587,162.04587,0,0,0,402.77118,201.273a31.03527,31.03527,0,0,0,8.11847-8.84137L474.56494,88.23486a31.32289,31.32289,0,0,0-53.45459-32.6665L357.43506,159.76514A31.55046,31.55046,0,0,0,354.31482,166.57275Zm16.77258,1.53516L434.7627,63.91162a15.32313,15.32313,0,1,1,26.1499,15.98047L397.2373,184.08838a15.32313,15.32313,0,1,1-26.1499-15.98047Z"/><path d="M414.2627,417.91455a30.017,30.017,0,0,0-22.88721-7.71191l-7.55493.68689A56.01807,56.01807,0,0,0,336,384H104a56.03137,56.03137,0,0,0-47.84167,26.89038l-7.53235-.68481a29.91695,29.91695,0,1,0-2.69287,59.71093c.895,0,1.79443-.04052,2.69238-.12207l7.5321-.68469A56.36491,56.36491,0,0,0,104,496H336a55.5933,55.5933,0,0,0,39.59375-16.3999,56.29266,56.29266,0,0,0,8.26105-10.48657l7.53094.68481c.90137.08057,1.81787.12158,2.72412.12158a29.91842,29.91842,0,0,0,20.15284-52.00537ZM47.17676,453.85986A13.91812,13.91812,0,1,1,45.874,426.08057q.64746,0,1.30323.05957l48.16406,4.37841a9.52054,9.52054,0,0,1,0,18.9629h.00049ZM74.91791,467.4043,96.79,465.416h.00049A25.52089,25.52089,0,0,0,96.79,414.584L74.87628,412.5918c.27844-.29492.55585-.59058.84393-.87793A39.99923,39.99923,0,1,1,104,480,40.21831,40.21831,0,0,1,74.91791,467.4043Zm289.36188.88183A39.70208,39.70208,0,0,1,336,480H143.13831a55.87567,55.87567,0,0,0,0-80H336a39.99815,39.99815,0,0,1,28.27979,68.28613Zm29.83007-14.36621c-.43115,0-.86718-.01953-1.28515-.05713l-2.48725-.22607a56.35543,56.35543,0,0,0-.024-27.27149l2.50683-.228a13.91993,13.91993,0,1,1,1.28955,27.78271Z"/></g>
    </symbol>
    </defs>
</svg>