<svg width="10px" height="10px" xmlns="http://www.w3.org/2000/svg"> 
    <defs>
        <symbol viewBox="0 0 48 48" id="icon-photo-add">
            <path clip-rule="evenodd" d="M43 41H5a4 4 0 01-4-4V11a4 4 0 014-4h38a4 4 0 014 4v26a4 4 0 01-4 4zm2-30a2 2 0 00-2-2H5a2 2 0 00-2 2v26a2 2 0 002 2h38a2 2 0 002-2V11zm-3.666 23.715L35 28.381 31.381 32l3.334 3.334a.977.977 0 01-1.381 1.381L19 22.381 6.666 34.715a.977.977 0 01-1.381-1.381L18.19 20.429c.032-.048.053-.101.095-.144a.97.97 0 01.715-.281.97.97 0 01.715.281c.042.043.062.096.095.144L30 30.619l4.19-4.19c.033-.047.053-.101.095-.144a.975.975 0 01.715-.281.975.975 0 01.715.281c.042.043.062.097.095.144l6.905 6.905a.977.977 0 01-1.381 1.381zM29 19a4 4 0 110-8 4 4 0 010 8zm0-6a2 2 0 10.001 4.001A2 2 0 0029 13z" fill-rule="evenodd"></path>
        </symbol>
        <symbol id="icon-stopwatch" viewBox="0 0 32 32">
            <path d="M16 6.038v-2.038h4v-2c0-1.105-0.895-2-2-2h-6c-1.105 0-2 0.895-2 2v2h4v2.038c-6.712 0.511-12 6.119-12 12.962 0 7.18 5.82 13 13 13s13-5.82 13-13c0-6.843-5.288-12.451-12-12.962zM22.071 26.071c-1.889 1.889-4.4 2.929-7.071 2.929s-5.182-1.040-7.071-2.929c-1.889-1.889-2.929-4.4-2.929-7.071s1.040-5.182 2.929-7.071c1.814-1.814 4.201-2.844 6.754-2.923l-0.677 9.813c-0.058 0.822 0.389 1.181 0.995 1.181s1.053-0.36 0.995-1.181l-0.677-9.813c2.552 0.079 4.94 1.11 6.754 2.923 1.889 1.889 2.929 4.4 2.929 7.071s-1.040 5.182-2.929 7.071z"></path>
        </symbol>
        <symbol id="icon-arrow-right" viewBox="0 0 32 32">
            <path d="M19.414 27.414l10-10c0.781-0.781 0.781-2.047 0-2.828l-10-10c-0.781-0.781-2.047-0.781-2.828 0s-0.781 2.047 0 2.828l6.586 6.586h-19.172c-1.105 0-2 0.895-2 2s0.895 2 2 2h19.172l-6.586 6.586c-0.39 0.39-0.586 0.902-0.586 1.414s0.195 1.024 0.586 1.414c0.781 0.781 2.047 0.781 2.828 0z"></path>
        </symbol>
        <symbol id="icon-arrow-left" viewBox="0 0 32 32">
            <path d="M12.586 27.414l-10-10c-0.781-0.781-0.781-2.047 0-2.828l10-10c0.781-0.781 2.047-0.781 2.828 0s0.781 2.047 0 2.828l-6.586 6.586h19.172c1.105 0 2 0.895 2 2s-0.895 2-2 2h-19.172l6.586 6.586c0.39 0.39 0.586 0.902 0.586 1.414s-0.195 1.024-0.586 1.414c-0.781 0.781-2.047 0.781-2.828 0z"></path>
        </symbol>
        <symbol id="icon-new-paragraph" viewBox="0 0 32 32">
            <path d="M12 0h16v4h-4v28h-4v-28h-4v28h-4v-16c-4.418 0-8-3.582-8-8s3.582-8 8-8z"></path>
        </symbol>
        <symbol id="icon-new-paragraph-2" version="1.0" viewBox="0 0 981 894">
            <path d="M693 3.2c-2.6 1.3-11.8 9.4-22.2 19.7L653 40.3l-5.2-4.4c-10-8.4-17.4-10.7-24.1-7.3-9.1 4.6-28.8 22.9-97.9 90.7-86.3 84.7-367.3 365.8-370.4 370.6-2.5 3.8-2.8 5.2-2.5 10.5.6 11.4.5 12.4-2.7 18.8-1.7 3.4-9 16.6-16.1 29.3-19.9 35-23.6 42.5-22.7 45.9.9 3.5 14.9 17.7 19.4 19.5 3.2 1.4 3.7 1.2 15.5-4.7 6.7-3.3 24.6-13.1 39.7-21.6l27.5-15.5 11.3 1.1 11.4 1.1 17.6-17.4c235.1-231.6 425.8-421.8 443.3-442.1 5.8-6.8 5.9-6.9 5.9-13 0-7-2.1-12.2-7.4-18.5l-3.5-4 17-16.9c9.4-9.3 18.3-18.9 19.9-21.3 5.5-8.3 3.4-19.3-5.5-28.9-9.5-10.3-21.2-13.7-30.5-9zM563.4 34.9c-3.3 2.2-14.7 12.2-25.4 22.4-28.7 27.2-116.2 114.3-120.9 120.5-3.4 4.4-4.1 6.2-4.1 9.8 0 6 3.2 9.4 8.9 9.4 6.8 0 11.2-4 86.5-78.9 66.1-65.7 73.9-74.4 72.1-80.1-.9-2.8-6.3-7-9-7-1.2 0-4.9 1.8-8.1 3.9z"></path>
            <path d="M29.4 317.9c-18.3 1-23.3 3.8-25.4 14.6-.5 2.7-1.4 19.8-2 38-1.5 43.1-.7 494.2.8 502.8 1.1 6.1 5 12.8 8.9 15.4 4.4 2.9 105.2 3.6 527.3 3.7 291 .1 411.3-.2 418.2-1 11.1-1.3 14.3-3.1 20.4-11.2l3.4-4.7-.4-262c-.2-180.4-.7-265.1-1.4-272-1.6-14.1-3.2-17.8-8.9-20.6-4.1-2-6.9-2.3-28.7-3.1-36.1-1.4-394.8-.4-401.1 1.1-10 2.3-16 10.2-15.9 20.6 0 7 2.1 11.6 8.6 18.8l4.3 4.7 198.3.7 198.2.6V846H48V364.1l93.8-.3c83.9-.4 94.2-.6 98.7-2.1 5.8-1.9 11.6-7.3 14-12.9 2-5 1.9-13.4-.4-18.4-2.4-5.2-9.2-11-13.9-11.9-5.1-.9-194.6-1.4-210.8-.6z"></path>
            <path d="M415.6 531c-6.8 7.5-8.4 15.5-4.7 23.5 3.2 7.2 6.6 9.2 17.3 10.1 5.1.5 100.8.8 212.6.6l203.3-.2 3.2-3.6c5.6-6.3 7.7-10.5 7.7-15.4-.1-6.5-4.3-13.9-9.5-16.5-4-2-6.3-2-215.1-2.3l-211-.4-3.8 4.2zM192.3 723.2c-7.5 7.6-9.2 15.7-5 23.8 3.5 7 6.9 8.7 19.5 9.7 5.9.4 151.7.7 324.1.6l313.4-.3 3.6-4.1c5.8-6.8 7.1-9.2 7.1-13.4 0-6.8-2-11.7-6.5-16.2l-4.2-4.3H196.4l-4.1 4.2z"></path>
        </symbol>
        <symbol id="icon-add" viewBox="0 0 32 32">
            <path d="M31 12h-11v-11c0-0.552-0.448-1-1-1h-6c-0.552 0-1 0.448-1 1v11h-11c-0.552 0-1 0.448-1 1v6c0 0.552 0.448 1 1 1h11v11c0 0.552 0.448 1 1 1h6c0.552 0 1-0.448 1-1v-11h11c0.552 0 1-0.448 1-1v-6c0-0.552-0.448-1-1-1z"></path>
        </symbol>
        <symbol id="icon-home" viewBox="0 0 32 32">
            <path d="M32 18.451l-16-12.42-16 12.42v-5.064l16-12.42 16 12.42zM28 18v12h-8v-8h-8v8h-8v-12l12-9z"></path>
        </symbol>
        <symbol id="icon-recipe" viewBox="0 0 24 24">
            <path d="M6 3.984v8.016l2.484-1.5 2.531 1.5v-8.016h-5.016zM18 2.016q0.797 0 1.406 0.586t0.609 1.383v16.031q0 0.797-0.609 1.383t-1.406 0.586h-12q-0.797 0-1.406-0.586t-0.609-1.383v-16.031q0-0.797 0.609-1.383t1.406-0.586h12z"></path>
        </symbol>
        <symbol id="icon-create" viewBox="0 0 32 32">
            <path d="M27 0c2.761 0 5 2.239 5 5 0 1.126-0.372 2.164-1 3l-2 2-7-7 2-2c0.836-0.628 1.874-1 3-1zM2 23l-2 9 9-2 18.5-18.5-7-7-18.5 18.5zM22.362 11.362l-14 14-1.724-1.724 14-14 1.724 1.724z"></path>
        </symbol>
        <symbol id="icon-about" viewBox="0 0 24 24">
            <path d="M11.016 9v-2.016h1.969v2.016h-1.969zM12 20.016q3.281 0 5.648-2.367t2.367-5.648-2.367-5.648-5.648-2.367-5.648 2.367-2.367 5.648 2.367 5.648 5.648 2.367zM12 2.016q4.125 0 7.055 2.93t2.93 7.055-2.93 7.055-7.055 2.93-7.055-2.93-2.93-7.055 2.93-7.055 7.055-2.93zM11.016 17.016v-6h1.969v6h-1.969z"></path>
        </symbol>
        <symbol id="icon-user" viewBox="0 0 24 24">
            <path d="M12 14.016q2.531 0 5.273 1.102t2.742 2.883v2.016h-16.031v-2.016q0-1.781 2.742-2.883t5.273-1.102zM12 12q-1.641 0-2.813-1.172t-1.172-2.813 1.172-2.836 2.813-1.195 2.813 1.195 1.172 2.836-1.172 2.813-2.813 1.172z"></path>
        </symbol>
        <symbol id="icon-user_add" viewBox="0 0 24 24">
            <path d="M15 14.016q2.531 0 5.273 1.102t2.742 2.883v2.016h-16.031v-2.016q0-1.781 2.742-2.883t5.273-1.102zM6 9.984h3v2.016h-3v3h-2.016v-3h-3v-2.016h3v-3h2.016v3zM15 12q-1.641 0-2.813-1.172t-1.172-2.813 1.172-2.836 2.813-1.195 2.813 1.195 1.172 2.836-1.172 2.813-2.813 1.172z"></path>
        </symbol>
        <symbol id="icon-logout" viewBox="0 0 24 24">
            <path d="M3.984 5.016v13.969h8.016v2.016h-8.016q-0.797 0-1.383-0.609t-0.586-1.406v-13.969q0-0.797 0.586-1.406t1.383-0.609h8.016v2.016h-8.016zM17.016 6.984l4.969 5.016-4.969 5.016-1.406-1.453 2.578-2.578h-10.172v-1.969h10.172l-2.578-2.625z"></path>
        </symbol>
        <symbol id="icon-close" viewBox="0 0 24 24">
            <path d="M18.984 6.422l-5.578 5.578 5.578 5.578-1.406 1.406-5.578-5.578-5.578 5.578-1.406-1.406 5.578-5.578-5.578-5.578 1.406-1.406 5.578 5.578 5.578-5.578z"></path>
        </symbol>
        <symbol id="icon-password" viewBox="0 0 24 24">
            <path d="M12 9q1.219 0 2.109 0.891t0.891 2.109-0.891 2.109-2.109 0.891-2.109-0.891-0.891-2.109 0.891-2.109 2.109-0.891zM12 17.016q2.063 0 3.539-1.477t1.477-3.539-1.477-3.539-3.539-1.477-3.539 1.477-1.477 3.539 1.477 3.539 3.539 1.477zM12 4.5q3.703 0 6.703 2.063t4.313 5.438q-1.313 3.375-4.313 5.438t-6.703 2.063-6.703-2.063-4.313-5.438q1.313-3.375 4.313-5.438t6.703-2.063z"></path>
        </symbol>
        <symbol id="icon-edit" viewBox="0 0 24 24">
            <path fill="none" d="M0 0h24v24H0z"></path>
            <path d="M9 4v1.38c-.83-.33-1.72-.5-2.61-.5-1.79 0-3.58.68-4.95 2.05l3.33 3.33h1.11v1.11c.86.86 1.98 1.31 3.11 1.36V15H6v3c0 1.1.9 2 2 2h10c1.66 0 3-1.34 3-3V4H9zm-1.11 6.41V8.26H5.61L4.57 7.22a5.07 5.07 0 011.82-.34c1.34 0 2.59.52 3.54 1.46l1.41 1.41-.2.2a2.7 2.7 0 01-1.92.8c-.47 0-.93-.12-1.33-.34zM19 17c0 .55-.45 1-1 1s-1-.45-1-1v-2h-6v-2.59c.57-.23 1.1-.57 1.56-1.03l.2-.2L15.59 14H17v-1.41l-6-5.97V6h8v11z"></path>
        </symbol>
    </defs>
</svg>