<svg width="10px" height="10px"> 
    <defs>
        <symbol xmlns="http://www.w3.org/2000/svg" viewBox="0 0 48 48" id="icon-photo-add">
            <path clip-rule="evenodd" d="M43 41H5a4 4 0 01-4-4V11a4 4 0 014-4h38a4 4 0 014 4v26a4 4 0 01-4 4zm2-30a2 2 0 00-2-2H5a2 2 0 00-2 2v26a2 2 0 002 2h38a2 2 0 002-2V11zm-3.666 23.715L35 28.381 31.381 32l3.334 3.334a.977.977 0 01-1.381 1.381L19 22.381 6.666 34.715a.977.977 0 01-1.381-1.381L18.19 20.429c.032-.048.053-.101.095-.144a.97.97 0 01.715-.281.97.97 0 01.715.281c.042.043.062.096.095.144L30 30.619l4.19-4.19c.033-.047.053-.101.095-.144a.975.975 0 01.715-.281.975.975 0 01.715.281c.042.043.062.097.095.144l6.905 6.905a.977.977 0 01-1.381 1.381zM29 19a4 4 0 110-8 4 4 0 010 8zm0-6a2 2 0 10.001 4.001A2 2 0 0029 13z" fill-rule="evenodd"></path>
        </symbol>
        <symbol fill="none" stroke="currentColor" stroke-linecap="round" stroke-linejoin="round" stroke-width="2" xmlns="http://www.w3.org/2000/svg" viewBox="0 0 24 24" id="icon-close">
            <circle cx="12" cy="12" r="10"></circle>
            <path d="M15 9l-6 6m0-6l6 6"></path>
        </symbol>
        <symbol xmlns="http://www.w3.org/2000/svg" id="icon-stopwatch" viewBox="0 0 32 32">
            <path d="M16 6.038v-2.038h4v-2c0-1.105-0.895-2-2-2h-6c-1.105 0-2 0.895-2 2v2h4v2.038c-6.712 0.511-12 6.119-12 12.962 0 7.18 5.82 13 13 13s13-5.82 13-13c0-6.843-5.288-12.451-12-12.962zM22.071 26.071c-1.889 1.889-4.4 2.929-7.071 2.929s-5.182-1.040-7.071-2.929c-1.889-1.889-2.929-4.4-2.929-7.071s1.040-5.182 2.929-7.071c1.814-1.814 4.201-2.844 6.754-2.923l-0.677 9.813c-0.058 0.822 0.389 1.181 0.995 1.181s1.053-0.36 0.995-1.181l-0.677-9.813c2.552 0.079 4.94 1.11 6.754 2.923 1.889 1.889 2.929 4.4 2.929 7.071s-1.040 5.182-2.929 7.071z"></path>
        </symbol>
    </defs>
</svg>